# Blender v2.93.1 OBJ File: ''
# www.blender.org
mtllib pillar2.mtl
o Cube
v -0.800000 -0.000000 0.800000
v -0.800000 0.400000 0.800000
v -0.800000 0.400000 -0.800000
v -0.800000 0.000000 -0.800000
v 0.800000 0.400000 -0.800000
v 0.800000 0.000000 -0.800000
v 0.800000 0.400000 0.800000
v 0.800000 -0.000000 0.800000
v 0.640000 0.560000 -0.640000
v 0.640000 0.560000 0.640000
v -0.640000 0.560000 -0.640000
v -0.640000 0.560000 0.640000
v -0.512000 0.560000 0.512000
v -0.512000 0.560000 -0.512000
v 0.512000 0.560000 0.512000
v 0.512000 0.640000 0.512000
v -0.512000 0.640000 0.512000
v 0.512000 0.560000 -0.512000
v 0.512000 0.640000 -0.512000
v -0.512000 0.640000 -0.512000
v 0.000000 0.600000 -0.500000
v 0.353553 0.600000 -0.353553
v 0.500000 0.600000 0.000000
v 0.353553 0.600000 0.353553
v 0.000000 0.600000 0.500000
v -0.353553 0.600000 0.353553
v -0.500000 0.600000 0.000000
v -0.353553 0.600000 -0.353553
v -0.500000 4.472403 0.000001
v -0.353553 4.170923 -0.353552
v 0.483219 4.238697 -0.040513
v -0.448425 4.557319 0.124513
v -0.353553 4.210118 0.353554
v 0.000000 3.821529 0.500001
v 0.353553 3.807928 0.353554
v 0.500000 4.177283 0.000001
v 0.000000 3.985688 -0.499999
v 0.353553 4.025206 -0.353552
vt 0.840716 0.690578
vt 0.763360 1.000000
vt 0.763361 0.690578
vt 0.898951 0.306806
vt 0.976306 0.000000
vt 0.976306 0.306806
vt 0.898951 0.613612
vt 0.976306 0.306806
vt 0.976306 0.613612
vt 0.593734 0.618845
vt 0.516378 0.928267
vt 0.516378 0.618845
vt 0.627770 0.000000
vt 0.318348 0.309422
vt 0.318348 0.000000
vt 0.627770 0.618845
vt 0.596828 0.340365
vt 0.627770 0.309422
vt 0.349290 0.587903
vt 0.374044 0.365119
vt 0.374044 0.563149
vt 0.871658 0.969058
vt 0.840716 1.000000
vt 0.624676 0.897325
vt 0.593734 0.928267
vt 0.318348 0.618845
vt 0.596828 0.587903
vt 0.887130 0.888608
vt 0.871658 0.690578
vt 0.887130 0.690578
vt 0.349290 0.340365
vt 0.572074 0.365119
vt 0.572074 0.563149
vt 0.516378 0.618845
vt 0.318348 0.816875
vt 0.318348 0.618845
vt 0.902601 0.886933
vt 0.887130 0.690578
vt 0.902601 0.690578
vt 0.762509 0.900040
vt 0.747038 0.703684
vt 0.762509 0.703684
vt 0.747038 0.901715
vt 0.731567 0.703684
vt 0.747038 0.703684
vt 0.126337 0.768799
vt 0.178668 0.895137
vt 0.052331 0.947468
vt 0.249974 0.765302
vt 0.318348 0.074725
vt 0.318348 0.765302
vt 0.098316 0.144331
vt 0.030025 0.148600
vt 0.000000 0.077869
vt 0.827480 0.654755
vt 0.763361 0.000000
vt 0.827480 0.000000
vt 0.898951 0.000000
vt 0.706117 0.703684
vt 0.731567 0.709305
vt 0.731567 0.892280
vt 0.181601 0.067145
vt 0.249974 0.016422
vt 0.181601 0.765522
vt 0.113247 0.767161
vt 0.044894 0.768799
vt 0.699241 0.703684
vt 0.763361 0.083306
vt 0.763361 0.703684
vt 0.627770 0.041287
vt 0.699241 0.011877
vt 0.898951 0.000000
vt 0.898951 0.306806
vt 0.627770 0.309422
vt 0.871658 0.721520
vt 0.624676 0.649787
vt 0.871658 0.888608
vt 0.516378 0.816875
vt 0.887130 0.886933
vt 0.747038 0.900040
vt 0.731567 0.901715
vt 0.000000 0.895137
vt 0.000000 0.821130
vt 0.052331 0.768799
vt 0.178668 0.821130
vt 0.126337 0.947468
vt 0.002960 0.065918
vt 0.164868 0.067565
vt 0.181601 0.000000
vt 0.763361 0.662397
vt 0.898951 0.690578
vt 0.667583 0.878147
vt 0.643732 0.743497
vt 0.627770 0.815762
vt 0.181601 0.765302
vt 0.225895 0.000000
vt 0.627770 0.703684
vt 0.691051 0.000000
vn -1.0000 -0.0000 0.0000
vn 0.0000 0.0000 -1.0000
vn 1.0000 0.0000 0.0000
vn 0.0000 -0.0000 1.0000
vn 0.0000 -1.0000 -0.0000
vn 0.7071 0.7071 0.0000
vn 0.0000 1.0000 0.0000
vn -0.7071 0.7071 0.0000
vn 0.0000 0.7071 0.7071
vn 0.0000 0.7071 -0.7071
vn -0.9239 0.0000 -0.3827
vn 0.3305 0.5810 0.7438
vn 0.3827 0.0000 -0.9239
vn -0.3827 0.0000 -0.9239
vn 0.1613 0.7829 -0.6008
vn -0.9239 0.0000 0.3827
vn -0.3827 -0.0000 0.9239
vn 0.3827 -0.0000 0.9239
vn 0.9239 -0.0000 0.3827
vn 0.9239 -0.0000 -0.3827
vn 0.3304 0.5810 0.7438
vn 0.1613 0.7830 -0.6008
usemtl None
s 1
f 2/1/1 4/2/1 1/3/1
f 3/4/2 6/5/2 4/6/2
f 5/7/3 8/8/3 6/9/3
f 7/10/4 1/11/4 8/12/4
f 6/13/5 1/14/5 4/15/5
f 5/16/6 10/17/6 7/18/6
f 11/19/7 13/20/7 14/21/7
f 2/1/8 11/22/8 3/23/8
f 7/10/9 12/24/9 2/25/9
f 3/26/10 9/27/10 5/16/10
f 15/28/4 17/29/4 13/30/4
f 12/31/7 15/32/7 13/20/7
f 9/27/7 14/21/7 18/33/7
f 10/17/7 18/33/7 15/32/7
f 20/34/7 16/35/7 19/36/7
f 14/37/2 19/38/2 18/39/2
f 18/40/3 16/41/3 15/42/3
f 13/43/1 20/44/1 14/45/1
f 24/46/5 26/47/5 28/48/5
f 27/49/11 30/50/11 28/51/11
f 34/52/12 35/53/12 36/54/12
f 37/55/13 22/56/13 21/57/13
f 28/58/14 37/55/14 21/57/14
f 29/59/15 32/60/15 31/61/15
f 33/62/16 29/63/16 27/49/16
f 34/52/17 26/64/17 25/65/17
f 35/53/18 25/65/18 24/66/18
f 23/67/19 35/68/19 24/69/19
f 38/70/20 36/71/20 23/67/20
f 2/1/1 3/23/1 4/2/1
f 3/4/2 5/72/2 6/5/2
f 5/7/3 7/73/3 8/8/3
f 7/10/4 2/25/4 1/11/4
f 6/13/5 8/74/5 1/14/5
f 5/16/6 9/27/6 10/17/6
f 11/19/7 12/31/7 13/20/7
f 2/1/8 12/75/8 11/22/8
f 7/10/9 10/76/9 12/24/9
f 3/26/10 11/19/10 9/27/10
f 15/28/4 16/77/4 17/29/4
f 12/31/7 10/17/7 15/32/7
f 9/27/7 11/19/7 14/21/7
f 10/17/7 9/27/7 18/33/7
f 20/34/7 17/78/7 16/35/7
f 14/37/2 20/79/2 19/38/2
f 18/40/3 19/80/3 16/41/3
f 13/43/1 17/81/1 20/44/1
f 28/48/5 21/82/5 22/83/5
f 22/83/5 23/84/5 24/46/5
f 24/46/5 25/85/5 26/47/5
f 26/47/5 27/86/5 28/48/5
f 28/48/5 22/83/5 24/46/5
f 27/49/11 29/63/11 30/50/11
f 36/54/12 31/87/12 33/88/21
f 31/87/12 32/89/21 33/88/21
f 33/88/21 34/52/12 36/54/12
f 37/55/13 38/90/13 22/56/13
f 28/58/14 30/91/14 37/55/14
f 31/61/15 38/92/15 30/93/15
f 38/92/15 37/94/22 30/93/15
f 30/93/15 29/59/15 31/61/15
f 27/49/16 26/95/16 33/62/16
f 33/62/16 32/96/16 29/63/16
f 34/52/17 33/88/17 26/64/17
f 35/53/18 34/52/18 25/65/18
f 23/67/19 36/71/19 35/68/19
f 23/67/20 22/97/20 38/70/20
f 38/70/20 31/98/20 36/71/20
