# Blender v2.93.1 OBJ File: ''
# www.blender.org
mtllib rock2.mtl
o Cube_Cube.001
v -0.550997 0.756511 0.293721
v 0.144578 0.779638 0.528853
v 0.306374 0.794088 0.155883
v 0.963311 0.582319 -0.223753
v 0.644813 0.557493 -1.000000
v 0.370276 0.624928 -1.000000
v 1.000000 0.407036 0.440879
v 1.000000 0.552928 -0.171258
v -0.297161 0.433189 1.000000
v 0.332049 0.567838 1.000000
v -1.000000 -0.363351 0.507527
v -1.000000 -1.000000 0.353143
v 0.039127 -1.000000 0.937734
v -0.521396 0.771276 -0.346058
v -0.691864 0.545895 -0.682084
v -1.000000 0.169932 -0.389046
v 0.344871 0.578906 0.984432
v 0.589828 -0.125908 1.000000
v 1.000000 -0.363245 0.465459
v 0.573497 -1.000000 -0.426152
v 1.000000 -0.466968 -0.402040
v -0.360347 0.183541 1.000000
v -1.000000 0.196370 0.368337
v -1.000000 -0.545728 -0.549929
v -1.000000 -1.000000 -0.160739
v 0.695917 0.452681 -1.000000
v 0.557800 -0.376557 -1.000000
v 1.000000 0.048360 -0.748904
v 1.000000 -0.123627 0.622148
v -0.967375 -0.529796 -0.586323
v -0.666249 0.533198 -0.716325
v -0.027832 -0.468724 -1.000000
v -0.393417 -0.701266 -0.839552
v 1.000000 -0.019840 -0.741225
v 0.617292 -0.415893 -0.955352
v -0.414747 -1.000000 -0.568745
v 0.678563 -0.880670 -0.520396
v 0.481674 -1.000000 0.528449
v -0.051727 0.793724 -0.509385
v -0.700907 0.578173 0.567256
v 0.082389 -0.843592 1.000000
v -0.022213 0.531165 -1.000000
vt 0.318778 0.261750
vt 0.177559 0.310477
vt 0.144108 0.234553
vt 0.007865 0.159335
vt 0.071354 0.000785
vt 0.127867 0.000000
vt 0.000000 0.295997
vt 0.000229 0.170271
vt 0.265503 0.408114
vt 0.138354 0.408114
vt 0.484188 0.400714
vt 0.351760 0.408185
vt 0.359206 0.173095
vt 0.744578 0.360379
vt 0.677106 0.312831
vt 0.738641 0.237533
vt 0.667961 0.812773
vt 0.666080 0.815457
vt 0.517871 0.815457
vt 0.459292 0.716259
vt 0.350493 0.518200
vt 0.443225 0.540032
vt 0.677106 0.113078
vt 0.652855 0.237265
vt 0.602528 0.249583
vt 0.594736 0.408185
vt 0.709197 0.090817
vt 0.790711 0.000000
vt 0.924007 0.132990
vt 0.701268 0.408185
vt 0.871008 0.432518
vt 0.667961 0.470064
vt 0.641733 0.420305
vt 0.654523 0.585628
vt 0.548793 0.475189
vt 0.614359 0.719069
vt 0.506621 0.750318
vt 0.907364 0.752156
vt 0.763397 0.774993
vt 0.690119 0.687515
vt 0.338841 0.057033
vt 0.344221 0.063902
vt 0.311854 0.131244
vt 0.893013 0.542950
vt 0.941146 0.623872
vt 0.535033 0.476051
vt 0.469430 0.418420
vt 0.479590 0.408185
vt 1.000000 0.648121
vt 0.262472 0.481308
vt 0.253218 0.508574
vt 0.088903 0.466693
vt 0.063246 0.582071
vt 0.332377 0.687486
vt 0.051402 0.804523
vt 0.348305 0.106590
vt 0.473587 0.007846
vt 0.535146 0.061715
vt 0.216046 0.098426
vt 0.135806 0.404888
vt 0.348305 0.318436
vt 0.392050 0.161472
vt 0.892985 0.246490
vt 0.875130 0.360379
vt 0.931757 0.325295
vt 0.348305 0.708475
vt 0.371481 0.503227
vt 0.674973 0.339201
vt 0.895517 0.002419
vt 0.689228 0.544008
vt 0.680191 0.418061
vt 0.664534 0.419975
vt 0.647087 0.596928
vt 0.910503 0.761088
vt 0.687402 0.695017
vt 0.207100 0.000061
vt 1.000000 0.790093
vt 0.039951 0.531788
vt 0.193027 0.408114
vt 0.208071 0.410102
vt 0.000000 0.713155
vt 0.294632 0.804523
vt 0.525537 0.000000
vn -0.0404 0.9990 0.0212
vn 0.2366 0.9632 -0.1279
vn 0.4085 0.8879 0.2116
vn -0.1854 0.8666 0.4633
vn -0.4797 -0.2068 0.8527
vn -0.7815 0.6235 -0.0218
vn 0.6563 0.2439 0.7140
vn 0.7770 -0.6251 0.0747
vn 0.0000 -0.0000 1.0000
vn -0.6901 0.1747 0.7023
vn -1.0000 0.0000 0.0000
vn 0.0000 0.0000 -1.0000
vn 0.8394 0.4093 -0.3575
vn 1.0000 0.0000 0.0000
vn -0.7670 0.1407 -0.6260
vn -0.2049 0.8578 -0.4714
vn -0.4031 0.0023 -0.9152
vn 0.5576 -0.0929 -0.8249
vn -0.4679 -0.5750 -0.6712
vn 0.1058 -0.6720 -0.7330
vn -0.0000 -1.0000 -0.0000
vn 0.6121 -0.4328 0.6618
vn 0.7310 -0.4124 -0.5437
usemtl None.001
s 1
f 1/1/1 2/2/1 3/3/1
f 4/4/2 5/5/2 6/6/2
f 7/7/3 8/8/3 3/3/3
f 9/9/4 10/10/4 2/2/4
f 11/11/5 12/12/5 13/13/5
f 14/14/6 15/15/6 16/16/6
f 17/17/7 10/18/7 18/19/7
f 19/20/8 20/21/8 21/22/8
f 10/23/9 9/24/9 22/25/9
f 23/26/10 11/11/10 22/25/10
f 24/27/11 25/28/11 11/29/11
f 26/30/12 27/31/12 6/32/12
f 26/33/13 4/34/13 28/35/13
f 7/36/14 29/37/14 19/20/14
f 30/38/15 16/39/15 31/40/15
f 31/41/16 15/42/16 14/43/16
f 31/40/17 32/44/17 33/45/17
f 34/46/18 35/47/18 27/48/18
f 30/38/19 33/45/19 36/49/19
f 37/50/20 20/51/20 32/52/20
f 36/53/21 38/54/21 12/55/21
f 38/56/22 19/57/22 18/58/22
f 21/22/23 35/47/23 34/46/23
f 3/3/1 39/59/1 14/43/1
f 14/43/1 1/1/1 3/3/1
f 6/6/2 39/59/2 4/4/2
f 39/59/2 3/3/2 4/4/2
f 8/8/3 4/4/3 3/3/3
f 3/3/3 2/2/3 7/7/3
f 2/2/3 17/60/3 7/7/3
f 10/10/4 17/60/4 2/2/4
f 2/2/4 1/1/4 40/61/4
f 40/61/4 9/9/4 2/2/4
f 13/13/5 41/62/5 11/11/5
f 41/62/5 22/25/5 11/11/5
f 16/16/6 23/63/6 1/64/6
f 23/63/6 40/65/6 1/64/6
f 1/64/6 14/14/6 16/16/6
f 29/37/7 7/36/7 18/19/7
f 7/36/7 17/17/7 18/19/7
f 38/66/8 20/21/8 19/20/8
f 20/21/8 37/67/8 21/22/8
f 41/62/9 18/58/9 22/25/9
f 18/58/9 10/23/9 22/25/9
f 9/24/10 40/68/10 22/25/10
f 40/68/10 23/26/10 22/25/10
f 12/69/11 11/29/11 25/28/11
f 11/29/11 23/63/11 16/16/11
f 24/27/11 11/29/11 16/16/11
f 27/31/12 32/44/12 42/70/12
f 42/70/12 6/32/12 27/31/12
f 6/32/12 5/71/12 26/30/12
f 5/72/13 4/34/13 26/33/13
f 4/34/13 8/73/13 28/35/13
f 19/20/14 21/22/14 8/73/14
f 21/22/14 34/46/14 8/73/14
f 34/46/14 28/35/14 8/73/14
f 8/73/14 7/36/14 19/20/14
f 24/74/15 16/39/15 30/38/15
f 16/39/15 15/75/15 31/40/15
f 14/43/16 39/59/16 31/41/16
f 39/59/16 6/6/16 42/76/16
f 31/41/16 39/59/16 42/76/16
f 33/45/17 30/38/17 31/40/17
f 31/40/17 42/70/17 32/44/17
f 26/33/18 28/35/18 27/48/18
f 28/35/18 34/46/18 27/48/18
f 36/49/19 25/77/19 24/74/19
f 24/74/19 30/38/19 36/49/19
f 20/51/20 36/53/20 32/52/20
f 36/53/20 33/78/20 32/52/20
f 32/52/20 27/79/20 35/80/20
f 37/50/20 32/52/20 35/80/20
f 25/81/21 36/53/21 12/55/21
f 36/53/21 20/51/21 38/54/21
f 12/55/21 38/54/21 13/82/21
f 29/83/22 18/58/22 19/57/22
f 18/58/22 41/62/22 38/56/22
f 41/62/22 13/13/22 38/56/22
f 21/22/23 37/67/23 35/47/23
