# Blender v2.93.1 OBJ File: ''
# www.blender.org
mtllib water.mtl
o Circle
v 0.923879 0.307249 -0.382684
v 0.382683 0.307249 0.923880
v -0.923880 0.307249 0.382683
v 0.000000 -0.692751 -1.000000
v -1.000000 -0.692751 -0.000000
v 0.000000 -0.692751 1.000000
v -1.000000 0.307249 0.000000
v -0.980785 -0.692751 -0.195090
v -0.980785 0.307249 -0.195090
v 0.923880 0.307249 0.382684
v 0.831469 -0.692751 0.555570
v 0.831469 0.307249 0.555570
v -0.980785 0.307249 0.195090
v 0.980785 0.307249 0.195090
v 0.923880 -0.692751 0.382684
v -0.980785 -0.692751 0.195090
v 1.000000 0.307249 0.000000
v 0.980785 -0.692751 0.195090
v -0.831470 0.307249 0.555570
v -0.923880 -0.692751 0.382683
v 0.980785 0.307249 -0.195090
v 1.000000 -0.692751 -0.000000
v -0.707107 0.307249 0.707107
v -0.831470 -0.692751 0.555570
v 0.980785 -0.692751 -0.195090
v -0.555570 0.307249 0.831470
v -0.707107 -0.692751 0.707107
v 0.831470 0.307249 -0.555570
v 0.923879 -0.692751 -0.382684
v -0.382683 0.307249 0.923880
v -0.555570 -0.692751 0.831470
v -0.195090 0.307249 -0.980785
v 0.000000 0.307249 -1.000000
v 0.707107 0.307249 -0.707107
v 0.831470 -0.692751 -0.555570
v -0.195090 0.307249 0.980785
v -0.382683 -0.692751 0.923880
v -0.382683 0.307249 -0.923880
v -0.195090 -0.692751 -0.980785
v 0.555570 0.307249 -0.831470
v 0.707107 -0.692751 -0.707107
v 0.000000 0.307249 1.000000
v -0.195090 -0.692751 0.980785
v -0.555570 0.307249 -0.831470
v -0.382683 -0.692751 -0.923880
v 0.382683 0.307249 -0.923880
v 0.555570 -0.692751 -0.831470
v 0.195090 0.307249 0.980785
v -0.707107 0.307249 -0.707107
v -0.555570 -0.692751 -0.831470
v 0.195090 0.307249 -0.980785
v 0.382683 -0.692751 -0.923880
v 0.195090 -0.692751 0.980785
v -0.831470 0.307249 -0.555570
v -0.707107 -0.692751 -0.707107
v 0.195090 -0.692751 -0.980785
v 0.555570 0.307249 0.831470
v 0.382683 -0.692751 0.923880
v -0.923880 0.307249 -0.382683
v -0.831470 -0.692751 -0.555570
v 0.707107 0.307249 0.707107
v 0.555570 -0.692751 0.831470
v -0.923880 -0.692751 -0.382683
v 0.707107 -0.692751 0.707107
vt 0.192776 0.122771
vt 0.872086 0.189678
vt 0.805180 0.868986
vt 0.009584 0.820936
vt 0.176650 0.508377
vt 0.489209 0.675444
vt 0.749397 0.588967
vt 1.000000 0.629815
vt 0.749397 0.629815
vt 0.498793 0.387438
vt 0.749397 0.414732
vt 0.498793 0.414732
vt 0.749397 0.543580
vt 1.000000 0.588967
vt 0.498793 0.352700
vt 0.749397 0.387438
vt 0.749397 0.495397
vt 1.000000 0.543580
vt 0.498793 0.311853
vt 0.749397 0.352700
vt 0.749397 0.446270
vt 1.000000 0.495397
vt 0.498793 0.266465
vt 0.749397 0.311853
vt 0.749397 0.398087
vt 1.000000 0.446270
vt 0.498793 0.218282
vt 0.749397 0.266465
vt 0.749397 0.352700
vt 1.000000 0.398087
vt 0.498793 0.169156
vt 0.749397 0.218282
vt 0.498793 0.726584
vt 0.749397 0.767432
vt 0.498793 0.767432
vt 0.749397 0.277115
vt 1.000000 0.317962
vt 0.749397 0.317962
vt 0.498793 0.120973
vt 0.749397 0.169156
vt 0.498793 0.681197
vt 0.749397 0.726584
vt 0.749397 0.231727
vt 1.000000 0.277115
vt 0.498793 0.075585
vt 0.749397 0.120973
vt 0.498793 0.633014
vt 0.749397 0.681197
vt 0.749397 0.183545
vt 1.000000 0.231727
vt 0.498793 0.034738
vt 0.749397 0.075585
vt 0.498793 0.583887
vt 0.749397 0.633014
vt 0.749397 0.134418
vt 1.000000 0.183545
vt 0.498793 0.000000
vt 0.749397 0.034738
vt 0.498793 0.535704
vt 0.749397 0.583887
vt 0.749397 0.086235
vt 1.000000 0.134418
vt 1.000000 0.352700
vt 0.749397 0.352700
vt 0.498793 0.490317
vt 0.749397 0.535704
vt 0.749397 0.040847
vt 1.000000 0.086235
vt 0.498793 0.449469
vt 0.749397 0.490317
vt 0.749397 0.000000
vt 1.000000 0.040847
vt 0.749397 0.449469
vt 0.125872 0.802080
vt 0.073303 0.723405
vt 0.018635 0.448568
vt 0.037094 0.635989
vt 0.018635 0.543188
vt 0.037094 0.355766
vt 0.073303 0.268350
vt 0.125872 0.189678
vt 0.271450 0.070203
vt 0.358867 0.033993
vt 0.451668 0.015534
vt 0.546288 0.015534
vt 0.639089 0.033993
vt 0.726506 0.070203
vt 0.805180 0.122771
vt 0.924653 0.268350
vt 0.960862 0.355766
vt 0.979321 0.448568
vt 0.979321 0.543188
vt 0.960862 0.635989
vt 0.924653 0.723405
vt 0.872086 0.802080
vt 0.726506 0.921553
vt 0.639089 0.957762
vt 0.546288 0.976221
vt 0.451668 0.976221
vt 0.358867 0.957762
vt 0.271450 0.921553
vt 0.192778 0.868986
vt 0.000000 0.772753
vt 0.028384 0.630056
vt 0.000000 0.723626
vt 0.009584 0.675444
vt 0.055678 0.589209
vt 0.090415 0.554471
vt 0.131263 0.527178
vt 0.224833 0.498793
vt 0.367530 0.527177
vt 0.273960 0.498793
vt 0.322143 0.508377
vt 0.408378 0.554471
vt 0.443116 0.589209
vt 0.470409 0.630056
vt 0.498793 0.723626
vt 0.498793 0.772753
vt 0.489209 0.820936
vt 0.470409 0.866323
vt 0.443116 0.907171
vt 0.408378 0.941909
vt 0.367530 0.969202
vt 0.322143 0.988002
vt 0.273960 0.997586
vt 0.224833 0.997586
vt 0.176650 0.988002
vt 0.131263 0.969202
vt 0.090416 0.941909
vt 0.055678 0.907171
vt 0.028384 0.866323
vt 1.000000 0.352700
vt 0.749397 0.000000
vt 1.000000 0.000000
vn 0.0000 -1.0000 -0.0000
vn 0.0000 1.0000 0.0000
vn 0.9952 -0.0000 0.0980
vn -0.8819 0.0000 -0.4714
vn 0.9952 -0.0000 -0.0980
vn -0.9569 0.0000 -0.2903
vn 0.9569 -0.0000 -0.2903
vn -0.9952 0.0000 -0.0980
vn 0.8819 0.0000 -0.4714
vn -0.9952 0.0000 0.0980
vn 0.7730 0.0000 -0.6344
vn -0.9569 -0.0000 0.2903
vn 0.6344 0.0000 -0.7730
vn -0.8819 -0.0000 0.4714
vn 0.4714 0.0000 -0.8819
vn 0.0980 -0.0000 0.9952
vn -0.7730 -0.0000 0.6344
vn 0.2903 0.0000 -0.9569
vn 0.2903 -0.0000 0.9569
vn -0.6344 -0.0000 0.7730
vn 0.0980 0.0000 -0.9952
vn 0.4714 -0.0000 0.8819
vn -0.4714 -0.0000 0.8819
vn -0.0980 0.0000 -0.9952
vn 0.6344 -0.0000 0.7730
vn -0.2903 -0.0000 0.9569
vn -0.2903 0.0000 -0.9569
vn 0.7730 -0.0000 0.6344
vn -0.0980 -0.0000 0.9952
vn -0.4714 0.0000 -0.8819
vn 0.8819 -0.0000 0.4714
vn -0.6344 0.0000 -0.7730
vn 0.9569 0.0000 0.2903
vn -0.7730 0.0000 -0.6344
usemtl None
s 1
f 1/1/1 2/2/1 3/3/1
f 4/4/2 5/5/2 6/6/2
f 7/7/3 8/8/3 9/9/3
f 10/10/4 11/11/4 12/12/4
f 13/13/5 5/14/5 7/7/5
f 14/15/6 15/16/6 10/10/6
f 3/17/7 16/18/7 13/13/7
f 17/19/8 18/20/8 14/15/8
f 19/21/9 20/22/9 3/17/9
f 21/23/10 22/24/10 17/19/10
f 23/25/11 24/26/11 19/21/11
f 1/27/12 25/28/12 21/23/12
f 26/29/13 27/30/13 23/25/13
f 28/31/14 29/32/14 1/27/14
f 30/33/15 31/34/15 26/35/15
f 32/36/16 4/37/16 33/38/16
f 34/39/17 35/40/17 28/31/17
f 36/41/18 37/42/18 30/33/18
f 38/43/19 39/44/19 32/36/19
f 40/45/20 41/46/20 34/39/20
f 42/47/21 43/48/21 36/41/21
f 44/49/22 45/50/22 38/43/22
f 46/51/23 47/52/23 40/45/23
f 48/53/24 6/54/24 42/47/24
f 49/55/25 50/56/25 44/49/25
f 51/57/26 52/58/26 46/51/26
f 2/59/27 53/60/27 48/53/27
f 54/61/28 55/62/28 49/55/28
f 33/38/29 56/63/29 51/64/29
f 57/65/30 58/66/30 2/59/30
f 59/67/31 60/68/31 54/61/31
f 61/69/32 62/70/32 57/65/32
f 9/71/33 63/72/33 59/67/33
f 12/12/34 64/73/34 61/69/34
f 38/74/1 32/75/1 46/76/1
f 32/75/1 33/77/1 46/76/1
f 33/77/1 51/78/1 46/76/1
f 46/76/1 40/79/1 34/80/1
f 34/80/1 28/81/1 46/76/1
f 28/81/1 1/1/1 46/76/1
f 1/1/1 21/82/1 17/83/1
f 17/83/1 14/84/1 10/85/1
f 10/85/1 12/86/1 61/87/1
f 61/87/1 57/88/1 2/2/1
f 2/2/1 48/89/1 42/90/1
f 42/90/1 36/91/1 30/92/1
f 30/92/1 26/93/1 23/94/1
f 23/94/1 19/95/1 3/3/1
f 3/3/1 13/96/1 7/97/1
f 7/97/1 9/98/1 59/99/1
f 59/99/1 54/100/1 49/101/1
f 49/101/1 44/102/1 38/74/1
f 1/1/1 17/83/1 2/2/1
f 17/83/1 10/85/1 2/2/1
f 10/85/1 61/87/1 2/2/1
f 2/2/1 42/90/1 30/92/1
f 30/92/1 23/94/1 2/2/1
f 23/94/1 3/3/1 2/2/1
f 3/3/1 7/97/1 38/74/1
f 7/97/1 59/99/1 38/74/1
f 59/99/1 49/101/1 38/74/1
f 38/74/1 46/76/1 1/1/1
f 38/74/1 1/1/1 3/3/1
f 4/4/2 39/103/2 55/104/2
f 39/103/2 45/105/2 55/104/2
f 45/105/2 50/106/2 55/104/2
f 55/104/2 60/107/2 63/108/2
f 63/108/2 8/109/2 55/104/2
f 8/109/2 5/5/2 55/104/2
f 5/5/2 16/110/2 27/111/2
f 16/110/2 20/112/2 27/111/2
f 20/112/2 24/113/2 27/111/2
f 27/111/2 31/114/2 37/115/2
f 37/115/2 43/116/2 6/6/2
f 6/6/2 53/117/2 58/118/2
f 58/118/2 62/119/2 64/120/2
f 64/120/2 11/121/2 15/122/2
f 15/122/2 18/123/2 64/120/2
f 18/123/2 22/124/2 64/120/2
f 22/124/2 25/125/2 29/126/2
f 29/126/2 35/127/2 22/124/2
f 35/127/2 41/128/2 22/124/2
f 41/128/2 47/129/2 4/4/2
f 47/129/2 52/130/2 4/4/2
f 52/130/2 56/131/2 4/4/2
f 27/111/2 37/115/2 5/5/2
f 37/115/2 6/6/2 5/5/2
f 6/6/2 58/118/2 22/124/2
f 58/118/2 64/120/2 22/124/2
f 4/4/2 55/104/2 5/5/2
f 22/124/2 41/128/2 6/6/2
f 41/128/2 4/4/2 6/6/2
f 7/7/3 5/14/3 8/8/3
f 10/10/4 15/16/4 11/11/4
f 13/13/5 16/18/5 5/14/5
f 14/15/6 18/20/6 15/16/6
f 3/17/7 20/22/7 16/18/7
f 17/19/8 22/24/8 18/20/8
f 19/21/9 24/26/9 20/22/9
f 21/23/10 25/28/10 22/24/10
f 23/25/11 27/30/11 24/26/11
f 1/27/12 29/32/12 25/28/12
f 26/29/13 31/132/13 27/30/13
f 28/31/14 35/40/14 29/32/14
f 30/33/15 37/42/15 31/34/15
f 32/36/16 39/44/16 4/37/16
f 34/39/17 41/46/17 35/40/17
f 36/41/18 43/48/18 37/42/18
f 38/43/19 45/50/19 39/44/19
f 40/45/20 47/52/20 41/46/20
f 42/47/21 6/54/21 43/48/21
f 44/49/22 50/56/22 45/50/22
f 46/51/23 52/58/23 47/52/23
f 48/53/24 53/60/24 6/54/24
f 49/55/25 55/62/25 50/56/25
f 51/57/26 56/133/26 52/58/26
f 2/59/27 58/66/27 53/60/27
f 54/61/28 60/68/28 55/62/28
f 33/38/29 4/37/29 56/63/29
f 57/65/30 62/70/30 58/66/30
f 59/67/31 63/72/31 60/68/31
f 61/69/32 64/73/32 62/70/32
f 9/71/33 8/134/33 63/72/33
f 12/12/34 11/11/34 64/73/34
